<?xml version="1.0" standalone="no"?><!DOCTYPE svg PUBLIC "-//W3C//DTD SVG 1.1//EN" "http://www.w3.org/Graphics/SVG/1.1/DTD/svg11.dtd"><svg t="1627549015123" class="icon" viewBox="0 0 1024 1024" version="1.1" xmlns="http://www.w3.org/2000/svg" p-id="2612" xmlns:xlink="http://www.w3.org/1999/xlink" width="200" height="200"><defs><style type="text/css">@font-face { font-family: feedback-iconfont; src: url("//at.alicdn.com/t/font_1031158_1uhr8ri0pk5.eot?#iefix") format("embedded-opentype"), url("//at.alicdn.com/t/font_1031158_1uhr8ri0pk5.woff2") format("woff2"), url("//at.alicdn.com/t/font_1031158_1uhr8ri0pk5.woff") format("woff"), url("//at.alicdn.com/t/font_1031158_1uhr8ri0pk5.ttf") format("truetype"), url("//at.alicdn.com/t/font_1031158_1uhr8ri0pk5.svg#iconfont") format("svg"); }
</style></defs><path d="M727.496 576.468l-266.596-266.592v-4.288a98.428 98.428 0 0 0 6.264-34.736V145.58c0-48.428-34.24-87.692-76.476-87.692H281.44c-42.236 0-76.476 39.26-76.476 87.692v18.86a12.528 12.528 0 0 1-8.932 12l-64.264 19.244h-0.008c-22.32 0-40.412 20.748-40.412 46.34V312.2c0 25.592 18.096 46.34 40.412 46.34h148.324c3.396 0 6.428 1.472 8.564 3.784v88.64c-46.2 48.416-45.548 125.1 2.024 172.672l98.192 98.192 83.928 111.904c27.872 77.184 101.74 132.376 188.536 132.376 110.696 0 200.436-89.74 200.436-200.436 0.008-87.504-56.092-161.868-134.268-189.204z" fill="#A4C9FF" p-id="2613" style="user-select: auto;"></path><path d="M237.552 346.016v-35.792c0-35.58-33.652-64.424-75.164-64.424h-71.04v66.4c0 25.596 18.096 46.34 40.412 46.34H225.024a12.524 12.524 0 0 0 12.528-12.524z" fill="#E0EBFC" p-id="2614" style="user-select: auto;"></path><path d="M863.144 813.876c-24.9 0-43.728-4.76-45.276-5.164a25.056 25.056 0 0 1 12.584-48.504c1.076 0.268 54.656 13.32 86.668-11.576 17.304-13.46 26.08-37.228 26.08-70.648a25.06 25.06 0 0 1 50.112 0c0 49.836-15.376 86.984-45.696 110.412-26.372 20.372-58.68 25.48-84.472 25.48z" fill="#A4C9FF" p-id="2615" style="user-select: auto;"></path><path d="M863.144 821.876c-25.744 0-45.168-4.868-47.296-5.424-17.64-4.6-28.244-22.692-23.644-40.332 4.588-17.58 22.64-28.192 40.24-23.664 0.444 0.112 50.912 12.296 79.764-10.144 15.252-11.868 22.992-33.512 22.992-64.332 0-18.228 14.828-33.056 33.056-33.056s33.056 14.828 33.056 33.056c0 52.444-16.42 91.72-48.808 116.74-22.992 17.768-53.892 27.156-89.36 27.156z m-38.92-54.452a17.1 17.1 0 0 0-16.54 12.736 17.08 17.08 0 0 0 12.2 20.808c0.768 0.2 19.1 4.908 43.256 4.908 22.244 0 54.104-4.132 79.58-23.812 28.26-21.832 42.588-56.848 42.588-104.08 0-9.404-7.652-17.056-17.056-17.056s-17.056 7.652-17.056 17.056c0 36.012-9.816 61.908-29.168 76.96-34.944 27.172-91.136 13.616-93.508 13.024a17.472 17.472 0 0 0-4.296-0.544z" fill="#3762CC" p-id="2616" style="user-select: auto;"></path><path d="M661.336 765.676m-200.436 0a200.436 200.436 0 1 0 400.872 0 200.436 200.436 0 1 0-400.872 0Z" fill="#A4C9FF" p-id="2617" style="user-select: auto;"></path><path d="M620.504 966.112h-165.228c-9.868 0-17.864-8-17.864-17.864v-4.216c0-32.232 26.128-58.36 58.36-58.36h124.736a38.112 38.112 0 0 1 38.112 38.112V928c-0.004 21.048-17.068 38.112-38.116 38.112zM401.396 621.612l-112.744-18.792 53.456 281.864h-32.168c-25.596 0-46.344 20.748-46.344 46.344v20.896a14.188 14.188 0 0 0 14.188 14.188H374.952c21.292 0 38.332-17.672 37.556-38.948l-11.112-305.552z" fill="#A4C9FF" p-id="2618" style="user-select: auto;"></path><path d="M272.992 183.16a18.792 18.792 0 0 1-18.792-18.792v-25.056a18.792 18.792 0 0 1 37.584 0v25.056a18.792 18.792 0 0 1-18.792 18.792z" fill="#3762CC" p-id="2619" style="user-select: auto;"></path><path d="M147.72 239.532v-31.32c0-5.944-2.156-11.328-5.612-15.624l-10.34 3.096h-0.008c-22.32 0-40.412 20.748-40.412 46.34v22.56h31.32a25.048 25.048 0 0 0 25.052-25.052z" fill="#4671C6" p-id="2620" style="user-select: auto;"></path><path d="M661.336 974.112c-9.16 0-18.52-0.636-27.86-1.888a45.832 45.832 0 0 1-12.972 1.888h-165.228a25.892 25.892 0 0 1-25.864-25.864v-4.216c0-33.26 24.6-60.884 56.56-65.636-21.68-33.588-33.072-72.264-33.072-112.72 0-48.308 16.904-95.396 47.6-132.584a8 8 0 1 1 12.34 10.18 192.736 192.736 0 0 0-43.94 122.404c0 41.912 13.24 81.752 38.28 115.204a8.008 8.008 0 0 1-6.404 12.796h-5.004c-27.768 0-50.36 22.592-50.36 50.36v4.216a9.872 9.872 0 0 0 9.864 9.864h165.228c3.26 0 6.524-0.548 9.7-1.632 1.188-0.408 2.468-0.524 3.712-0.348 9.196 1.312 18.42 1.98 27.42 1.98 106.108 0 192.436-86.328 192.436-192.436a8 8 0 0 1 16 0c0 114.928-93.504 208.432-208.436 208.432z" fill="#3762CC" p-id="2621" style="user-select: auto;"></path><path d="M509.42 363.604l-230.516 97.848a8.236 8.236 0 0 1-6.768-0.148L35.384 348.352c-6.408-3.06-6.208-12.248 0.328-15.024l550.476-233.664c6.536-2.776 13.288 3.464 11.036 10.2l-83.212 248.768a8.204 8.204 0 0 1-4.592 4.972z" fill="#6BDDDD" p-id="2622" style="user-select: auto;"></path><path d="M275.688 470.108a16.24 16.24 0 0 1-7-1.584L31.94 355.576a16.06 16.06 0 0 1-9.244-15.012 16.064 16.064 0 0 1 9.892-14.596l550.48-233.664a16.056 16.056 0 0 1 17.368 3.024 16.056 16.056 0 0 1 4.376 17.08l-83.208 248.764a16.248 16.248 0 0 1-9.056 9.8l-230.516 97.848a16.248 16.248 0 0 1-6.344 1.288zM38.832 341.132l236.752 112.952 230.716-97.84a0.26 0.26 0 0 0 0.136-0.148l83.208-248.764-0.324-0.3L38.836 340.692l-3.452 7.664 3.448-7.224z" fill="#3762CC" p-id="2623" style="user-select: auto;"></path><path d="M661.336 974.112c-87.14 0-165.608-54.808-195.648-136.524l-50.9-67.864 5.716 157.152a45.2 45.2 0 0 1-12.74 33.296 45.188 45.188 0 0 1-32.812 13.94H277.784a22.212 22.212 0 0 1-22.188-22.184v-20.896c0-29.964 24.38-54.344 54.344-54.344h22.508l-46.8-246.76-0.628-0.632c-49.34-49.34-51.036-130.068-4.368-181.476V366.584a3.624 3.624 0 0 0-0.564-0.044H131.76c-26.696 0-48.416-24.376-48.416-54.34V242.028c0-29.504 21.056-53.588 47.184-54.324l63.208-18.928c1.928-0.58 3.228-2.324 3.228-4.336v-18.86c0-52.764 37.896-95.688 84.476-95.688h109.248c46.58 0 84.476 42.924 84.476 95.688v125.272c0 12.364-2.068 24.408-6.144 35.832l262.852 262.852c82.56 29.688 137.9 108.276 137.9 196.144 0 114.928-93.504 208.432-208.436 208.432z m-255.472-237.62c2.468 0 4.86 1.144 6.404 3.2l66.932 89.244c0.476 0.636 0.856 1.336 1.124 2.084 27.448 76.016 100.188 127.092 181.012 127.092 106.108 0 192.436-86.328 192.436-192.436 0-81.688-51.808-154.692-128.916-181.656a7.944 7.944 0 0 1-3.016-1.896l-266.592-266.592a8 8 0 0 1-2.344-5.656v-4.288c0-0.964 0.172-1.92 0.512-2.82a90.16 90.16 0 0 0 5.752-31.916V145.58c0-43.94-30.716-79.688-68.476-79.688H281.44c-37.756 0-68.476 35.748-68.476 79.688v18.86a20.4 20.4 0 0 1-14.636 19.664l-64.264 19.248a7.956 7.956 0 0 1-2.296 0.336c-17.876 0-32.42 17.2-32.42 38.34V312.2c0 21.144 14.54 38.34 32.416 38.34h148.324c5.444 0 10.708 2.316 14.44 6.352 1.368 1.48 2.124 3.416 2.124 5.428v88.64c0 2.056-0.792 4.036-2.212 5.524-42.968 45.032-42.12 117.476 1.896 161.496l2.372 2.372c1.136 1.136 1.904 2.588 2.204 4.168l49.06 258.672a8 8 0 0 1-7.86 9.488h-32.168c-21.144 0-38.344 17.2-38.344 38.344v20.896c0 3.412 2.776 6.184 6.188 6.184h97.168a29.34 29.34 0 0 0 21.296-9.048 29.34 29.34 0 0 0 8.268-21.604l-6.644-182.672a7.992 7.992 0 0 1 7.988-8.288z" fill="#3762CC" p-id="2624" style="user-select: auto;"></path><path d="M479.692 289.64h-42.8c-31.712 0-57.416-25.708-57.416-57.416V57.888h75.164c41.512 0 75.164 33.652 75.164 75.164v106.48c-0.004 27.676-22.44 50.108-50.112 50.108z" fill="#4671C6" p-id="2625" style="user-select: auto;"></path><path d="M479.692 297.644h-42.8c-36.072 0-65.416-29.344-65.416-65.416V57.888a8 8 0 0 1 8-8h75.164c45.856 0 83.164 37.308 83.164 83.164v106.484c-0.004 32.04-26.072 58.108-58.112 58.108zM387.472 65.888v166.336c0 27.252 22.168 49.416 49.416 49.416h42.8c23.22 0 42.108-18.892 42.108-42.108v-106.48c0-37.032-30.128-67.164-67.164-67.164h-67.16z" fill="#3762CC" p-id="2626" style="user-select: auto;"></path></svg>